<svg width="16" height="16" viewBox="0 0 16 16" fill="none" xmlns="http://www.w3.org/2000/svg">
    <path d="M2.14645 13.4602C1.95118 13.2649 1.95118 12.9483 2.14645 12.7531L12.753 2.14646C12.9483 1.9512 13.2649 1.9512 13.4602 2.14646C13.6554 2.34172 13.6554 2.6583 13.4602 2.85357L2.85355 13.4602C2.65829 13.6554 2.34171 13.6554 2.14645 13.4602Z" fill="white"/>
    <path d="M2.14645 2.14645C2.34171 1.95118 2.65829 1.95118 2.85355 2.14645L13.4602 12.753C13.6554 12.9483 13.6554 13.2649 13.4602 13.4602C13.2649 13.6554 12.9483 13.6554 12.753 13.4602L2.14645 2.85355C1.95119 2.65829 1.95119 2.34171 2.14645 2.14645Z" fill="white"/>
</svg>